<svg xmlns="http://www.w3.org/2000/svg" width="320" height="214.667" viewBox="0 0 240 161"><defs><linearGradient id="a" x1="0" x2="240" y1="0" y2="161" gradientUnits="userSpaceOnUse"><stop offset="0%" stop-color="#1e9ad6"/><stop offset="50%" stop-color="#0d6fb8"/><stop offset="100%" stop-color="#00458a"/></linearGradient></defs><path fill="url(#a)" d="M624 1556c-165-31-278-90-390-201-66-65-89-96-122-165-55-116-67-174-66-310 1-207 54-340 184-470 100-101 182-144 337-176 117-24 150-39 245-110 121-90 284-98 447-22 121 58 191 153 225 310 21 95 49 128 110 128 31 0 55-10 101-40 131-88 274-103 400-41 159 78 254 238 255 426 0 156-40 263-136 360-110 111-258 151-401 106-65-20-85-32-208-130-62-49-122-63-176-41-17 7-67 56-114 110-120 139-227 216-355 254-75 23-247 29-336 12" transform="matrix(.1 0 0 -.1 0 161)"/><g fill="#fff"><path d="M81.2 56.5c.8 1.9.8 2.8-.2 4S76.8 62 62.9 62c-19.3 0-21.9.6-21.9 5v3h18.9c15.9 0 19.2.3 20.5 1.6 2 2 2 3.8 0 5.5-1.2 1-6.3 1.3-20.2 1.3l-18.7.1-.3 2.9c-.2 1.6.2 3.2 1 3.7.7.5 8.8.9 18 .9 9.1 0 17.4.3 18.2.6 3.1 1.2 3.8 4.2 1.6 6.4-1.8 1.8-3.3 2-17.3 2-17.7 0-25.9-1.6-29.4-5.6-2.1-2.3-2.3-3.5-2.3-15.3 0-12.6 0-12.8 2.8-15.3 4.3-4.1 7.6-4.6 27.5-4.7L80 54zM98.8 56.1c1.1 1.1 6.2 7.8 11.3 14.9l9.3 12.9 7.8-10.7c12.3-17 14.4-19.2 18.3-19.2 2.4 0 3.8.6 4.5 1.9.6 1.2 1 9.3 1 19.6V93l-2.5 1.2c-1.9.8-3.1.8-5 0-2.5-1.1-2.5-1.3-2.5-12.9V69.6l-8.3 11.9c-12.3 17.8-14.5 17.8-26.2.6l-7-10.3-.6 4.3c-.3 2.4-.4 5-.1 5.7.2.7.1 3.7-.3 6.7-.6 4.8-1 5.6-3.1 6.1-1.4.4-3.6.2-5-.5L88 93V74.6c0-16.6.2-18.6 1.8-19.5 2.8-1.7 7-1.2 9 1M205.8 57.4c.2 1.6-.2 3.2-1 3.7-.7.5-8.4.9-17 .9-16.9 0-20.8.7-20.8 4 0 3.1 3.8 4 16.8 4 13.2 0 18.4 1.1 21.9 4.6 2.1 2.1 2.4 3.2 2.1 8.5s-.7 6.5-2.8 8.1c-3.6 2.7-12.4 3.8-29.7 3.8-12.4 0-15.4-.3-16.7-1.6-1.8-1.8-2-3.2-.6-5.4.7-1.2 4.5-1.6 20.1-2 16.8-.4 19.3-.7 20.3-2.2.8-1.4.7-2.2-.7-3.5-1.4-1.4-4.4-1.9-16.5-2.4-8.1-.4-15.9-1.1-17.3-1.7-6.2-2.4-8.6-9.9-5.4-16.2.9-1.7 1.7-3 1.8-3s2-.7 4.2-1.5c3.1-1.1 8.4-1.4 22.5-1.2l18.5.2z"/></g></svg>