<svg version="1.0" xmlns="http://www.w3.org/2000/svg"
 width="240.000000pt" height="161.000000pt" viewBox="0 0 240.000000 161.000000"
 preserveAspectRatio="xMidYMid meet">
<defs>
  <linearGradient id="g1" x1="0" y1="0" x2="240" y2="161" gradientUnits="userSpaceOnUse">
    <stop offset="0%" stop-color="#1E9AD6"/>
    <stop offset="50%" stop-color="#0D6FB8"/>
    <stop offset="100%" stop-color="#00458A"/>
  </linearGradient>
</defs>
<g transform="translate(0.000000,161.000000) scale(0.100000,-0.100000)"
fill="url(#g1)" stroke="none">
<path d="M624 1556 c-165 -31 -278 -90 -390 -201 -66 -65 -89 -96 -122 -165
-55 -116 -67 -174 -66 -310 1 -207 54 -340 184 -470 100 -101 182 -144 337
-176 117 -24 150 -39 245 -110 121 -90 284 -98 447 -22 121 58 191 153 225
310 21 95 49 128 110 128 31 0 55 -10 101 -40 131 -88 274 -103 400 -41 159
78 254 238 255 426 0 156 -40 263 -136 360 -110 111 -258 151 -401 106 -65
-20 -85 -32 -208 -130 -62 -49 -122 -63 -176 -41 -17 7 -67 56 -114 110 -120
139 -227 216 -355 254 -75 23 -247 29 -336 12z"/>
</g>
<g transform="translate(0.000000,161.000000) scale(0.100000,-0.100000)"
fill="white" stroke="none">
<path d="M812 1045 c8 -19 8 -28 -2 -40
-10 -12 -42 -15 -181 -15 -193 0 -219 -6 -219 -50 l0 -30 189 0 c159 0 192 -3
205 -16 20 -20 20 -38 0 -55 -12 -10 -63 -13 -202 -13 l-187 -1 -3 -29 c-2
-16 2 -32 10 -37 7 -5 88 -9 180 -9 91 0 174 -3 182 -6 31 -12 38 -42 16 -64
-18 -18 -33 -20 -173 -20 -177 0 -259 16 -294 56 -21 23 -23 35 -23 153 0 126
0 128 28 153 43 41 76 46 275 47 l187 1 12 -25z"/>
<path d="M988 1049 c11 -11 62 -78 113
-149 l93 -129 78 107 c123 170 144 192 183 192 24 0 38 -6 45 -19 6 -12 10
-93 10 -196 l0 -175 -25 -12 c-19 -8 -31 -8 -50 0 -25 11 -25 13 -25 129 l0
117 -83 -119 c-123 -178 -145 -178 -262 -6 l-70 103 -6 -43 c-3 -24 -4 -50 -1
-57 2 -7 1 -37 -3 -67 -6 -48 -10 -56 -31 -61 -14 -4 -36 -2 -50 5 l-24 11 0
184 c0 166 2 186 18 195 28 17 70 12 90 -10z"/>
<path d="M2058 1036 c2 -16 -2 -32 -10 -37
-7 -5 -84 -9 -170 -9 -169 0 -208 -7 -208 -40 0 -31 38 -40 168 -40 132 0 184
-11 219 -46 21 -21 24 -32 21 -85 -3 -53 -7 -65 -28 -81 -36 -27 -124 -38
-297 -38 -124 0 -154 3 -167 16 -18 18 -20 32 -6 54 7 12 45 16 201 20 168 4
193 7 203 22 8 14 7 22 -7 35 -14 14 -44 19 -165 24 -81 4 -159 11 -173 17
-62 24 -86 99 -54 162 9 17 17 30 18 30 1 0 20 7 42 15 31 11 84 14 225 12
l185 -2 3 -29z"/>
</g>
</svg>
